<svg class="w-16 h-16 fill-black bg-transparent hover:fill-white duration-1000 transition" version="1.1" id="Icons" xmlns="http://www.w3.org/2000/svg" viewBox="0 0 32 32" fill="#000000" transform="rotate(180)"><g id="SVGRepo_bgCarrier" stroke-width="0"></g><g id="SVGRepo_tracerCarrier" stroke-linecap="round" stroke-linejoin="round"></g><g id="SVGRepo_iconCarrier"> <style type="text/css"> </style> <path d="M27.3,4.7c-1.3-1.3-3.1-2.1-4.9-2.1s-3.6,0.7-5,2.1L4.7,17.4c-1.3,1.3-2.1,3.1-2.1,4.9c0,1.9,0.7,3.6,2.1,4.9 c1.3,1.3,3.1,2.1,4.9,2.1s3.6-0.7,5-2.1l12.7-12.7c1.3-1.3,2.1-3.1,2.1-4.9C29.4,7.8,28.6,6,27.3,4.7z M13.2,25.9 c-0.9,0.9-2.2,1.5-3.5,1.5c-1.3,0-2.6-0.5-3.5-1.5s-1.5-2.2-1.5-3.5c0-1.3,0.5-2.6,1.5-3.5l5.7-5.7l7.1,7.1L13.2,25.9z"></path> </g></svg>